<svg xmlns="http://www.w3.org/2000/svg" data-name="Layer 1" viewBox="0 0 64 80" x="0px" y="0px"><title>Blogs- Copy-Layout-Page-Text</title><path d="M15,17.517a7.427,7.427,0,0,0-7.583,7.242v1.034H22.583V24.759A7.427,7.427,0,0,0,15,17.517Z"/><ellipse cx="15" cy="11.31" rx="4.333" ry="4.138"/><path d="M41.4,18.6c-.328-.328-.634-.663-.935-1-1.245,1.806-1.594,3.1-1.434,3.392.276.144,1.565-.21,3.369-1.457C42.06,19.239,41.724,18.932,41.4,18.6Z"/><path d="M46.6,13.4c.328.328.634.663.935,1,1.245-1.806,1.594-3.1,1.434-3.392a.4.4,0,0,0-.177-.031,7.347,7.347,0,0,0-3.2,1.484C45.938,12.759,46.275,13.067,46.6,13.4Z"/><path d="M41.4,13.4c.328-.328.664-.635,1-.935-1.807-1.247-3.1-1.6-3.392-1.434-.144.276.21,1.565,1.457,3.369C40.761,14.06,41.068,13.724,41.4,13.4Z"/><path d="M44,18.3c.384-.334.781-.7,1.19-1.11s.776-.806,1.11-1.19c-.334-.384-.7-.781-1.11-1.19s-.8-.775-1.187-1.107c-.386.335-.782.7-1.193,1.107s-.776.806-1.11,1.19c.334.384.7.781,1.11,1.19S43.616,17.966,44,18.3Z"/><path d="M46.6,18.6c-.328.328-.663.634-1,.935,1.8,1.245,3.1,1.594,3.392,1.434.144-.276-.21-1.565-1.457-3.369C47.239,17.94,46.932,18.276,46.6,18.6Z"/><path d="M37.74,18.235A15.573,15.573,0,0,1,39.146,16a15.573,15.573,0,0,1-1.406-2.235,7.2,7.2,0,0,1-.644-1.787,7.928,7.928,0,0,0,0,8.044A7.2,7.2,0,0,1,37.74,18.235Z"/><path d="M44,20.854a15.573,15.573,0,0,1-2.235,1.406,7.239,7.239,0,0,1-1.786.645,7.93,7.93,0,0,0,8.042,0,7.239,7.239,0,0,1-1.786-.645A15.573,15.573,0,0,1,44,20.854Z"/><path d="M50.26,18.235a7.2,7.2,0,0,1,.644,1.787,7.928,7.928,0,0,0,0-8.044,7.2,7.2,0,0,1-.644,1.787A15.573,15.573,0,0,1,48.854,16,15.573,15.573,0,0,1,50.26,18.235Z"/><path d="M44,11.146A15.573,15.573,0,0,1,46.235,9.74,7.2,7.2,0,0,1,48.022,9.1a7.928,7.928,0,0,0-8.044,0,7.2,7.2,0,0,1,1.787.644A15.573,15.573,0,0,1,44,11.146Z"/><path d="M51.182,30C57.157,30,62,23.732,62,16S57.157,2,51.182,2H5.457A3.382,3.382,0,0,0,2,5.3V58.7A3.382,3.382,0,0,0,5.457,62H51.182C57.157,62,62,55.732,62,48S57.157,34,51.182,34H28V30ZM44,6A10,10,0,1,1,34,16,10.011,10.011,0,0,1,44,6ZM16.083,57.862H5.25V55.793H16.083ZM10.667,33.034H6.333V30.966h4.334ZM21.5,37.172v2.069H8.5V37.172Zm1.083,14.483H11.75V49.586H22.583Zm2.167-6.207H13.917V43.379H24.75Zm0-12.414H13.917V30.966H24.75Zm0-6.206a1.059,1.059,0,0,1-1.083,1.034H6.333A1.059,1.059,0,0,1,5.25,26.828V24.759a9.316,9.316,0,0,1,5.822-8.515A6.106,6.106,0,0,1,8.5,11.31,6.366,6.366,0,0,1,15,5.1a6.366,6.366,0,0,1,6.5,6.207,6.106,6.106,0,0,1-2.572,4.934,9.316,9.316,0,0,1,5.822,8.515ZM44,38A10,10,0,1,1,34,48,10.011,10.011,0,0,1,44,38Z"/><path d="M41.4,50.6c-.328-.328-.634-.663-.935-1-1.245,1.806-1.594,3.1-1.434,3.392.276.144,1.565-.21,3.369-1.457C42.06,51.239,41.724,50.932,41.4,50.6Z"/><path d="M46.6,45.4c.328.328.634.663.935,1,1.245-1.806,1.594-3.1,1.434-3.392a.4.4,0,0,0-.177-.031,7.347,7.347,0,0,0-3.2,1.484C45.938,44.759,46.275,45.067,46.6,45.4Z"/><path d="M41.4,45.4c.328-.328.664-.635,1-.935-1.807-1.247-3.1-1.6-3.392-1.434-.144.276.21,1.565,1.457,3.369C40.761,46.06,41.068,45.724,41.4,45.4Z"/><path d="M44,50.3c.384-.334.781-.7,1.19-1.11s.776-.806,1.11-1.19c-.334-.384-.7-.781-1.11-1.19s-.8-.775-1.187-1.107c-.386.335-.782.7-1.193,1.107s-.776.806-1.11,1.19c.334.384.7.781,1.11,1.19S43.616,49.966,44,50.3Z"/><path d="M46.6,50.6c-.328.328-.663.634-1,.935,1.8,1.245,3.1,1.594,3.392,1.434.144-.276-.21-1.565-1.457-3.369C47.239,49.94,46.932,50.276,46.6,50.6Z"/><path d="M37.74,50.235A15.573,15.573,0,0,1,39.146,48a15.573,15.573,0,0,1-1.406-2.235,7.2,7.2,0,0,1-.644-1.787,7.928,7.928,0,0,0,0,8.044A7.2,7.2,0,0,1,37.74,50.235Z"/><path d="M44,52.854a15.573,15.573,0,0,1-2.235,1.406,7.239,7.239,0,0,1-1.786.645,7.93,7.93,0,0,0,8.042,0,7.239,7.239,0,0,1-1.786-.645A15.573,15.573,0,0,1,44,52.854Z"/><path d="M50.26,50.235a7.2,7.2,0,0,1,.644,1.787,7.928,7.928,0,0,0,0-8.044,7.2,7.2,0,0,1-.644,1.787A15.573,15.573,0,0,1,48.854,48,15.573,15.573,0,0,1,50.26,50.235Z"/><path d="M44,43.146a15.573,15.573,0,0,1,2.235-1.406,7.2,7.2,0,0,1,1.787-.644,7.928,7.928,0,0,0-8.044,0,7.2,7.2,0,0,1,1.787.644A15.573,15.573,0,0,1,44,43.146Z"/><text x="0" y="79" fill="#000000" font-size="5px" font-weight="bold" font-family="'Helvetica Neue', Helvetica, Arial-Unicode, Arial, Sans-serif">Created by Sumit Saengthong</text><text x="0" y="84" fill="#000000" font-size="5px" font-weight="bold" font-family="'Helvetica Neue', Helvetica, Arial-Unicode, Arial, Sans-serif">from the Noun Project</text></svg>